:SAMPLES-PER-SECOND 30
:FRAME-RANGE 1-2643
:FULLY-SPECIFIED
:DEGREES
1652
root  2.18607 33.7681 -70.6338 167.268 28.7708 175.133
RightUpLeg  -34.1697 6.81303 -19.9953
RightLeg  44.2179 5.38729 5.28911
RightFoot  -6.69878 -1.00531 23.3577
RightToes  7.56698e-010 0 -3.6325e-017
Spine  30.2046 -2.39803 1.99095
Spine1  -4.19085 -2.95623 9.22368
HEad  -4.54266 -25.409 4.76799
LeftShoulder1  1.57029 -1.81235 -23.2639
LeftArm  0.826403 -18.552 -39.7088
LeftForeArm  14.3957 -23.5249 -4.30204
LeftHand  -0.0257995 -3.02675 0.583828
RightShoulder  4.1554 7.66114 31.3173
RightArm  -3.81065 5.66766 2.026
RightForeArm  1.13556 24.7117 5.23273
RightHand  -0.419181 2.34967 -6.48425
LeftUpLeg  -13.1313 -5.62032 9.7841
LeftLeg  64.1544 0.139733 0.982307
LeftFoot  -22.2069 -1.25233 -14.498
LeftToes  1.48244e-010 1.61973e-010 3.308e-011
1653
root  1.65003 34.1062 -70.8655 166.034 32.7804 174.817
RightUpLeg  -32.5857 8.39098 -19.6789
RightLeg  40.3722 7.102 6.1586
RightFoot  -6.07743 -1.21073 25.0486
RightToes  7.56698e-010 0 -3.6325e-017
Spine  29.1048 -2.01778 0.641403
Spine1  -4.32493 -2.91786 8.6421
HEad  -2.70608 -24.471 3.54921
LeftShoulder1  1.52457 -1.69652 -23.0294
LeftArm  -1.12491 -20.1936 -38.2515
LeftForeArm  14.9692 -24.0301 -4.35488
LeftHand  -0.0409091 -2.93876 0.794525
RightShoulder  4.49591 7.70228 34.223
RightArm  0.150495 5.04389 3.84497
RightForeArm  -1.80576 23.8355 5.18813
RightHand  -0.37877 2.2999 -5.91292
LeftUpLeg  -8.92313 -7.78568 9.43771
LeftLeg  53.7051 0.858323 1.74832
LeftFoot  -29.1014 -2.22217 -15.2639
LeftToes  1.48244e-010 1.61973e-010 3.308e-011
1654
root  0.974195 34.2685 -71.0042 165.007 37.3052 174.691
RightUpLeg  -31.8169 9.57358 -19.0622
RightLeg  36.804 8.7679 6.73333
RightFoot  -5.42229 -1.44197 26.7064
RightToes  7.56698e-010 0 -3.6325e-017
Spine  28.1602 -1.80399 -0.414135
Spine1  -4.32625 -2.92073 8.47813
HEad  -0.902832 -23.0661 2.28788
LeftShoulder1  1.46831 -1.5697 -22.631
LeftArm  -3.75028 -21.6847 -36.7191
LeftForeArm  15.4436 -24.7906 -4.49338
LeftHand  -0.0491042 -2.82391 0.913068
RightShoulder  4.8909 7.93341 36.8179
RightArm  3.85452 4.7437 5.96739
RightForeArm  -3.74252 21.7472 5.63382
RightHand  -0.321301 2.28925 -5.05169
LeftUpLeg  -5.74341 -7.14849 9.62179
LeftLeg  51.2281 -1.23219 -1.18157
LeftFoot  -32.1456 -3.09123 -17.769
LeftToes  1.48244e-010 1.61973e-010 3.308e-011
1655
root  0.244953 34.4376 -71.0227 163.455 42.2256 173.606
RightUpLeg  -31.4784 9.3159 -18.5012
RightLeg  33.1845 10.3244 6.96381
RightFoot  -4.55998 -1.59397 25.9504
RightToes  7.56698e-010 0 -3.6325e-017
Spine  27.6408 -1.29247 -2.16159
Spine1  -4.25388 -2.84262 8.52646
HEad  -0.142802 -21.0179 1.68089
LeftShoulder1  1.40094 -1.38599 -22.3218
LeftArm  -6.63356 -23.3674 -35.2977
LeftForeArm  15.7996 -25.4094 -4.60904
LeftHand  -0.0570604 -2.72629 1.0307
RightShoulder  5.42112 8.38441 39.5482
RightArm  4.98703 4.72263 7.35584
RightForeArm  -3.42032 19.4 7.12488
RightHand  -0.266704 2.47275 -4.1411
LeftUpLeg  -3.77349 -2.35607 9.40057
LeftLeg  50.4216 -1.45771 -1.43338
LeftFoot  -32.309 -3.13297 -17.8556
LeftToes  1.48244e-010 1.61973e-010 3.308e-011
1656
root  -0.53198 34.6472 -70.9196 161.505 47.287 171.539
RightUpLeg  -31.5472 7.67911 -17.8088
RightLeg  29.2845 10.3442 6.00116
RightFoot  -4.45315 -1.44812 23.251
RightToes  7.56698e-010 0 -3.6325e-017
Spine  27.1576 -0.842975 -3.55904
Spine1  -4.01915 -2.60744 7.68546
HEad  -0.163659 -18.9415 1.59861
LeftShoulder1  1.37319 -1.35832 -21.8892
LeftArm  -9.02446 -25.3289 -34.0916
LeftForeArm  16.3028 -25.5207 -4.60644
LeftHand  -0.0769136 -2.63119 1.32374
RightShoulder  5.94823 8.80161 42.1278
RightArm  3.79204 4.66273 8.7655
RightForeArm  -0.820562 16.9496 8.84388
RightHand  -0.26948 2.5332 -4.15471
LeftUpLeg  -2.71121 4.04772 9.28252
LeftLeg  49.7647 -1.56869 -1.53528
LeftFoot  -31.1114 -2.8047 -17.0591
LeftToes  1.48244e-010 1.61973e-010 3.308e-011
1657
root  -1.25349 34.8818 -70.7908 159.365 52.4071 168.765
RightUpLeg  -31.8243 3.64047 -16.1831
RightLeg  25.4642 7.85461 3.84396
RightFoot  -5.72086 -0.999462 19.3878
RightToes  7.56698e-010 0 -3.6325e-017
Spine  26.2179 -0.56344 -4.61434
Spine1  -3.66548 -2.3749 6.28686
HEad  -0.290665 -16.4622 1.32352
LeftShoulder1  1.35684 -1.29819 -21.9026
LeftArm  -10.6553 -26.8787 -32.8357
LeftForeArm  16.0642 -25.9653 -4.71703
LeftHand  -0.0655017 -2.34519 1.1781
RightShoulder  6.59179 9.57616 44.028
RightArm  2.4039 4.37047 10.2838
RightForeArm  1.46938 14.9677 10.1332
RightHand  -0.25908 2.64803 -3.95356
LeftUpLeg  -1.76589 10.2337 9.24399
LeftLeg  48.4843 -1.84905 -1.79497
LeftFoot  -30.1343 -2.61173 -16.7722
LeftToes  1.48244e-010 1.61973e-010 3.308e-011
1658
root  -1.94971 34.9985 -70.6562 157.668 57.135 166.564
RightUpLeg  -32.2332 -4.97892 -12.0195
RightLeg  22.6739 1.00474 0.245736
RightFoot  -8.72329 -0.423597 15.8331
RightToes  7.56698e-010 0 -3.6325e-017
Spine  25.838 -0.59317 -4.9197
Spine1  -4.06518 -2.32786 5.5823
HEad  -0.27524 -13.7619 0.658372
LeftShoulder1  1.36649 -1.27275 -22.2762
LeftArm  -11.5208 -27.751 -32.8513
LeftForeArm  16.0236 -26.0012 -4.72715
LeftHand  -0.0663494 -2.3112 1.1934
RightShoulder  7.1785 10.3765 45.23
RightArm  2.50222 4.32964 11.4498
RightForeArm  1.37635 13.7957 10.9915
RightHand  -0.223104 2.6993 -3.41578
LeftUpLeg  -1.61656 14.8471 9.46029
LeftLeg  48.1689 -1.49912 -1.35231
LeftFoot  -29.6356 -2.56238 -16.9121
LeftToes  1.48244e-010 1.61973e-010 3.308e-011
1659
root  -2.52782 35.0365 -70.4597 156.443 60.9252 164.709
RightUpLeg  -34.0765 -19.8051 -4.6144
RightLeg  22.4848 -7.61575 -3.66212
RightFoot  -11.5678 -0.0445617 17.3456
RightToes  7.56698e-010 0 -3.6325e-017
Spine  25.6499 -0.623748 -5.39919
Spine1  -4.84853 -2.44518 5.94902
HEad  -0.85601 -11.8371 0.334975
LeftShoulder1  1.40209 -1.37901 -22.39
LeftArm  -10.8624 -28.4739 -35.1724
LeftForeArm  16.0492 -25.4679 -4.60846
LeftHand  -0.0673577 -2.25145 1.21328
RightShoulder  7.55911 10.8736 46.0047
RightArm  1.80072 4.96329 11.8852
RightForeArm  3.7477 12.4413 11.7353
RightHand  -0.206023 2.94588 -3.09451
LeftUpLeg  -2.39007 17.6621 9.43803
LeftLeg  48.4521 -0.554407 -0.223213
LeftFoot  -29.0974 -2.53658 -17.2434
LeftToes  1.48244e-010 1.61973e-010 3.308e-011
1660
root  -3.10129 35.1352 -70.1925 155.234 64.8191 162.964
RightUpLeg  -36.9845 -26.4535 -0.0793639
RightLeg  26.8553 -12.8943 -7.21721
RightFoot  -11.1384 -0.101798 14.4735
RightToes  7.56698e-010 0 -3.6325e-017
Spine  25.3073 -0.224874 -5.30714
Spine1  -4.21848 -2.28116 7.0981
HEad  -2.5734 -10.6241 0.648715
LeftShoulder1  1.48324 -1.62203 -22.627
LeftArm  -7.52973 -30.2268 -39.1704
LeftForeArm  15.874 -24.6889 -4.44848
LeftHand  -0.0753947 -2.09728 1.35067
RightShoulder  7.97702 11.6194 46.1533
RightArm  -0.354522 5.75353 11.8751
RightForeArm  6.82346 11.4983 11.9735
RightHand  -0.224899 3.1187 -3.30145
LeftUpLeg  -3.17401 19.6898 9.53815
LeftLeg  48.3944 0.822465 1.43809
LeftFoot  -28.2123 -2.53592 -18.1081
LeftToes  1.48244e-010 1.61973e-010 3.308e-011
1661
root  -3.4263 35.104 -69.8788 152.073 68.3344 159.731
RightUpLeg  -38.0253 -23.9541 -1.93671
RightLeg  35.1914 -13.5943 -10.3382
RightFoot  -12.0631 -0.00239852 12.6293
RightToes  7.56698e-010 0 -3.6325e-017
Spine  25.5433 -0.198328 -4.90876
Spine1  -4.11216 -2.09005 6.46762
HEad  -4.28069 -8.60125 1.07998
LeftShoulder1  1.55609 -1.87765 -22.6072
LeftArm  -1.5465 -31.6035 -43.6714
LeftForeArm  15.2236 -24.7628 -4.49907
LeftHand  -0.0695099 -2.218 1.24887
RightShoulder  8.67464 12.7943 46.574
RightArm  -3.47393 6.51557 11.7833
RightForeArm  9.41708 10.5878 12.057
RightHand  -0.256625 3.1086 -3.738
LeftUpLeg  -3.06225 21.6055 9.92945
LeftLeg  48.6271 1.91175 2.77355
LeftFoot  -27.7031 -2.59592 -19.0563
LeftToes  1.48244e-010 1.61973e-010 3.308e-011
